<svg viewBox="0 0 1024 1024" version="1.1" xmlns="http://www.w3.org/2000/svg" width="81" height="81"><path d="M774.25976585 900.89494891l-59.38371748-31.23377878h-1.97682144l-57.32782307 30.04768639c-17.27741967 9.132915-38.42940923 9.76549808-55.19285568-0.39536413a54.28351756 54.28351756 0 0 1-25.85682459-56.02312082l11.2678824-66.06537396c-0.23721894-0.71165606-0.47443712-1.22562927-0.63258307-1.93728455l-46.33669495-45.15060256c-14.03543287-13.67960483-21.15198955-33.52689214-16.72390959-52.66252416a54.28351756 54.28351756 0 0 1 45.22967477-41.90861574l66.30259289-9.646889 1.70006638-1.22562927 28.66391115-58.07901446c8.65847789-17.51463862 25.38238747-30.4825874 44.91338363-32.18265378a54.16490848 54.16490848 0 0 1 53.84861732 30.16629546l29.65232225 60.29305484 1.70006639 1.26516615 64.04901563 9.25152487c19.33331408 2.84662267 36.92702491 14.74708815 44.55755637 32.7361631a54.12537237 54.12537237 0 0 1-11.94000158 60.49073767l-48.03676211 46.81113206c-0.23721894 0.67211918-0.47443712 1.22562927-0.63258307 1.93728534l10.91205437 63.45596945c3.43966965 20.16357923-3.12337773 41.27603267-18.93794919 54.12537158a54.28351756 54.28351756 0 0 1-59.81861773 5.9304643z m-35.06881333-78.20305758l59.70000864 31.35238863c0.43490101 0.23721894 0.79072826 0.43490101 1.5814573-0.0790722 0.79072826-0.55351009 0.71165606-1.02794721 0.63258307-1.46284821l-11.18881018-66.10491006a54.83702765 54.83702765 0 0 1 15.89364521-48.78795427l48.03676134-46.77159596c0.39536413-0.39536413 0.71165606-0.71165606 0.39536491-1.62099341-0.23721894-0.86980124-0.79072826-1.02794721-1.22563005-1.06748407l-66.34212823-9.6864251a54.95563673 54.95563673 0 0 1-41.51325084-30.16629548l-29.05927605-58.83020739a2.1745035 2.1745035 0 0 0-3.95364287 0l-29.01973917 58.83020739a55.35100163 55.35100163 0 0 1-41.51325085 30.16629548l-66.34212899 9.6864251c-0.47443712 0.0395361-0.98841111 0.11860909-1.22562928 1.06748407-0.23721894 0.83026514 0 1.22562927 0.39536414 1.5814573l47.99722524 46.89020505c12.96794878 12.57258465 18.93794996 30.87795153 15.9331813 48.78795427l-11.3074185 66.10491006c-0.07907298 0.51397322-0.11860909 0.98841111 0.6325823 1.46284743 0.79072826 0.51397322 1.18609317 0.39536413 1.62099419 0.07907299l59.70000863-31.35238864c7.51192161-4.26993402 16.20993636-6.32582843 24.82887737-6.32582842 8.73755088 0 17.39602876 2.0558944 25.34285137 6.24675544zM169.47100281 775.1691032h267.66162777c14.66801516 0 26.48940766 11.78185638 26.48940844 26.48940766 0 14.62847906-11.82139249 26.44987155-26.48940844 26.44987155H169.47100281C140.33265455 828.14791928 116.4921875 804.30745224 116.4921875 775.1691032V169.55007579C116.4921875 140.41172752 140.33265455 116.57126048 169.47100281 116.4921875h289.52527339c29.09881216 0 52.97881531 23.84046705 52.97881608 52.97881531v54.71841857h342.26687053c29.09881216 0 52.97881531 23.84046705 52.9788153 52.97881608v228.04612538c0 14.66801516-11.8609286 26.48940766-26.48940765 26.48940766a26.41033468 26.41033468 0 0 1-26.48940765-26.48940766V277.12870058H169.47100281v498.0799395z m0-605.69810039v54.75795545h289.60434636V169.47100281H169.47100281z" /></svg>