<?xml version="1.0" standalone="no"?><!DOCTYPE svg PUBLIC "-//W3C//DTD SVG 1.1//EN" "http://www.w3.org/Graphics/SVG/1.1/DTD/svg11.dtd"><svg viewBox="0 0 1024 1024" version="1.1" xmlns="http://www.w3.org/2000/svg" xmlns:xlink="http://www.w3.org/1999/xlink" width="81" height="81"><path d="M978.144 184.864c-8.16 0-24.48 0-32.704 8.224l0 0-57.248 40.864c-89.952-114.464-228.96-196.256-384.352-196.256-269.856 0-482.496 212.576-482.496 474.272 0 261.664 212.64 474.272 482.528 474.272 196.256 0 368-122.656 441.568-286.208 8.224-8.224 16.384-24.544 16.384-40.928 0-32.672-24.544-57.312-57.248-57.312-24.512 0-40.864 16.416-49.056 32.704l0 0c-49.088 139.104-188.096 237.216-343.488 237.216-204.448 0-368-163.552-368-359.84 0-204.416 163.552-359.776 368-359.776 122.656 0 237.152 65.376 302.592 155.36l8.16 0-89.92 57.28c-8.192 8.16-16.384 16.384-16.384 24.544-8.16 16.352 8.192 32.672 24.544 40.864l24.48 0 179.936 24.48 8.224 0c16.384 0 24.544-8.192 32.704-16.352l0-8.224 16.352-212.64c-0.032-16.224-8.192-32.608-24.544-32.608l0 0 0 0z" fill="#fff" /></svg>