<?xml version="1.0" standalone="no"?><!DOCTYPE svg PUBLIC "-//W3C//DTD SVG 1.1//EN" "http://www.w3.org/Graphics/SVG/1.1/DTD/svg11.dtd"><svg viewBox="0 0 1024 1024" version="1.1" xmlns="http://www.w3.org/2000/svg" xmlns:xlink="http://www.w3.org/1999/xlink" width="81" height="81"><path d="M639.54488889 937.18755555H344.17777778c-8.41955555 0-15.58755555-6.144-16.83911111-14.44977777l-77.48266667-501.98755556c-0.79644445-4.89244445 0.68266667-9.89866667 3.86844445-13.76711111s7.96444445-5.91644445 12.97066666-5.91644444h450.21866667c5.00622222 0 9.67111111 2.16177778 12.97066667 5.91644444s4.66488889 8.76088889 3.86844444 13.76711111l-77.36888889 501.98755556c-1.25155555 8.30577778-8.41955555 14.44977778-16.83911111 14.44977777z m-280.68977778-34.13333333h266.01244444l72.2488889-467.85422222H286.60622222l72.24888889 467.85422222z" /><path d="M724.08177778 435.08622222H259.52711111c-32.31288889 0-58.70933333-26.28266667-58.70933333-58.70933333v-1.25155556c0-32.31288889 26.28266667-58.70933333 58.70933333-58.70933333h464.55466667c32.31288889 0 58.70933333 26.28266667 58.70933333 58.70933333v1.25155556c0 32.31288889-26.28266667 58.70933333-58.70933333 58.70933333z m-464.55466667-84.53688889c-13.53955555 0-24.576 11.03644445-24.576 24.576v1.25155556c0 13.53955555 11.03644445 24.576 24.576 24.576h464.55466667c13.53955555 0 24.576-11.03644445 24.576-24.576v-1.25155556c0-13.53955555-11.03644445-24.576-24.576-24.576H259.52711111z" /><path d="M713.50044445 349.184c-7.96444445 0-15.01866667-5.57511111-16.72533334-13.65333333-11.264-54.49955555-59.61955555-93.98044445-115.14311111-93.98044445h-180.90666667c-53.81688889 0-100.69333333 36.52266667-114.00533333 88.86044445-2.27555555 9.10222222-11.60533333 14.67733333-20.70755555 12.288-9.10222222-2.27555555-14.67733333-11.60533333-12.288-20.70755556 8.192-32.08533333 27.07911111-61.21244445 53.248-81.92 26.624-21.04888889 59.96088889-32.65422222 93.86666666-32.65422222h180.90666667c71.68 0 134.144 50.97244445 148.59377777 121.17333333 1.93422222 9.216-4.096 18.20444445-13.312 20.13866667-1.13777778 0.34133333-2.38933333 0.45511111-3.5271111 0.45511111zM651.264 835.92533333H332.45866667c-9.44355555 0-17.06666667-7.62311111-17.06666667-17.06666666s7.62311111-17.06666667 17.06666667-17.06666667h318.69155555c9.44355555 0 17.06666667 7.62311111 17.06666667 17.06666667s-7.62311111 17.06666667-16.95288889 17.06666666zM697.00266667 530.09066667H286.72c-9.44355555 0-17.06666667-7.62311111-17.06666667-17.06666667s7.62311111-17.06666667 17.06666667-17.06666667h410.39644445c9.44355555 0 17.06666667 7.62311111 17.06666666 17.06666667s-7.73688889 17.06666667-17.18044444 17.06666667z" /><path d="M487.87911111 238.36444445c-9.44355555 0-17.06666667-7.62311111-17.06666666-17.06666667v-92.95644445c0-6.71288889 3.86844445-12.74311111 9.89866666-15.47377778l152.576-70.0871111c8.53333333-3.98222222 18.65955555-0.22755555 22.64177778 8.41955555 3.98222222 8.53333333 0.22755555 18.65955555-8.41955556 22.64177778l-142.56355555 65.536v82.03377777c0 9.32977778-7.62311111 16.95288889-17.06666667 16.9528889zM491.86133333 760.832c-45.39733333 0-82.37511111-36.97777778-82.37511111-82.37511111s36.97777778-82.37511111 82.37511111-82.37511111 82.37511111 36.97777778 82.37511112 82.37511111-36.97777778 82.37511111-82.37511112 82.37511111z m0-130.61688889c-26.624 0-48.24177778 21.61777778-48.24177778 48.24177778s21.61777778 48.24177778 48.24177778 48.24177778 48.24177778-21.61777778 48.24177778-48.24177778-21.61777778-48.24177778-48.24177778-48.24177778z" /></svg>