<?xml version="1.0" standalone="no"?><!DOCTYPE svg PUBLIC "-//W3C//DTD SVG 1.1//EN" "http://www.w3.org/Graphics/SVG/1.1/DTD/svg11.dtd"><svg viewBox="0 0 1024 1024" version="1.1" xmlns="http://www.w3.org/2000/svg" xmlns:xlink="http://www.w3.org/1999/xlink" width="81" height="81"><path d="M678.14589631 766.50622419H328.23220148c-57.60695309 0-111.9775605-22.65441975-153.0144237-63.56182913-41.0368632-41.0368632-63.56182914-95.40747061-63.56182913-153.0144237 0-13.07483653 1.16508445-26.14967309 3.49525333-38.83614816-31.71618765-18.90025876-51.5226232-53.07606914-51.52262322-90.87658667 0-58.38367605 47.50955457-105.89323061 105.89323064-105.89323061 19.28862025 0 37.6710637 5.17815309 53.72333826 14.62828247 9.83849086-48.1568237 52.68770765-84.66280297 103.69251555-84.66280296 36.24707161 0 68.35162075 18.38244347 87.38133333 46.2150163 19.02971259-27.96202667 51.13426173-46.2150163 87.38133334-46.2150163s68.35162075 18.38244347 87.38133333 46.2150163c19.02971259-27.96202667 51.13426173-46.2150163 87.38133333-46.2150163 51.78153086 0 94.88965531 37.28270222 104.08087705 86.34570272 16.6995437-10.61521383 36.24707161-16.44063605 56.70077629-16.44063605 58.38367605 0 105.89323061 47.50955457 105.89323062 105.89323062 0 38.18887902-19.93588939 72.36468939-52.04043852 91.13549431 2.33016889 12.68647506 3.49525333 25.63185778 3.49525334 38.5772405 0 57.60695309-22.65441975 111.9775605-63.56182914 153.01442371-40.90740939 41.16631703-95.2780168 63.69128297-152.88496987 63.69128295zM169.5218094 353.16015408c-37.02379457 0-67.05708247 30.0332879-67.05708248 67.05708245 0 27.57366518 16.57008987 51.91098469 42.07249383 62.26729088 9.0617679 3.62470717 13.98101333 13.46319803 11.52139062 22.91332741-3.75416098 14.49882864-5.69596839 29.51547259-5.69596839 44.53211654 0 97.99654717 79.74355753 177.74010469 177.74010468 177.74010469h349.91369481c97.99654717 0 177.74010469-79.74355753 177.7401047-177.74010469 0-15.01664395-1.94180741-29.90383408-5.69596841-44.40266272-2.45962272-9.45012939 2.58907653-19.41807408 11.65084445-22.9133274 25.89076543-10.09739852 42.59030914-34.69362569 42.59030915-62.39674471 0-37.02379457-30.0332879-67.05708247-67.05708248-67.05708245-22.78387358 0-43.75539358 11.3919368-56.18296098 30.42164939-5.43706075 8.28504494-16.05227457 11.13302914-24.85513482 6.731599l-3.88361482-1.94180741c-8.41449876-3.88361482-12.94538272-13.20429037-10.61521383-22.26605826 1.29453827-5.30760691 1.94180741-10.61521383 1.94180741-16.05227458 0-37.02379457-30.0332879-67.05708247-67.05708246-67.05708247s-67.05708247 30.0332879-67.05708247 67.05708247v1.94180741c0.12945383 5.30760691-1.81235358 10.35630617-5.43706074 14.11046717-3.62470717 3.75416098-8.67340642 5.82542222-13.98101334 5.82542222h-2.07126123c-5.17815309 0-10.22685235-2.07126124-13.98101334-5.82542222-3.62470717-3.75416098-5.69596839-8.80286025-5.43706073-14.11046717v-0.9061768-1.16508444c0-37.02379457-30.0332879-67.05708247-67.05708247-67.05708247s-67.05708247 30.0332879-67.05708247 67.05708247v1.94180742c0.12945383 5.17815309-1.81235358 10.35630617-5.43706075 14.11046716-3.62470717 3.75416098-8.67340642 5.82542222-13.98101333 5.82542221H413.41281975c-5.30760691 0-10.22685235-2.07126124-13.98101333-5.82542221-3.62470717-3.75416098-5.69596839-8.80286025-5.43706072-14.11046716v-0.77672298-1.16508444c0-37.02379457-30.0332879-67.05708247-67.05708249-67.05708247s-67.05708247 30.0332879-67.05708246 67.05708247c0 5.69596839 0.77672297 11.3919368 2.20071506 16.95845136 2.33016889 8.93231408-2.07126124 18.38244347-10.35630617 22.3955121l-1.4239921 0.64726913c-8.80286025 4.2719763-19.41807408 1.4239921-24.725681-6.73159901-12.42756741-18.77080494-33.39908741-30.0332879-56.05350714-30.03328789z" /><path d="M302.08252839 522.22685235c-7.24941431 0-14.23992098-4.01306864-17.47626666-11.00357532l-28.47984198-59.5487605c-4.66033778-9.70903703-0.51781531-21.23042765 9.19122173-25.89076542 9.70903703-4.66033778 21.23042765-0.51781531 25.89076544 9.19122172l28.47984198 59.5487605c4.66033778 9.70903703 0.51781531 21.23042765-9.19122173 25.89076543-2.84798419 1.16508445-5.69596839 1.81235358-8.41449878 1.81235359zM699.24687013 522.22685235c-2.84798419 0-5.69596839-0.64726914-8.41449876-1.94180741-9.70903703-4.66033778-13.72210569-16.18172839-9.19122173-25.89076544l28.47984198-59.54876048c4.66033778-9.70903703 16.18172839-13.72210569 25.89076543-9.19122174 9.70903703 4.66033778 13.72210569 16.18172839 9.19122171 25.89076544l-28.47984196 59.54876048c-3.3657995 6.99050667-10.22685235 11.13302914-17.47626667 11.13302915zM503.51268347 498.40734815c-10.74466765 0-19.41807408-8.67340642-19.41807407-19.41807407V418.79324445c0-10.74466765 8.67340642-19.41807408 19.41807407-19.41807408s19.41807408 8.67340642 19.41807407 19.41807408v60.19602963c0 10.61521383-8.67340642 19.41807408-19.41807407 19.41807407z" /></svg>