<?xml version="1.0" standalone="no"?><!DOCTYPE svg PUBLIC "-//W3C//DTD SVG 1.1//EN" "http://www.w3.org/Graphics/SVG/1.1/DTD/svg11.dtd"><svg viewBox="0 0 1024 1024" version="1.1" xmlns="http://www.w3.org/2000/svg" xmlns:xlink="http://www.w3.org/1999/xlink" width="81" height="81"><path d="M459.20711147 218.3168L404.8668448 164.0220448a22.7555552 22.7555552 0 1 1 32.22186667-32.22186667L489.2444448 184.00142187V102.4a22.7555552 22.7555552 0 1 1 45.5111104 0v81.60142187l52.15573333-52.20124374a22.7555552 22.7555552 0 0 1 32.22186667 32.22186667L564.79288853 218.3168c172.16853333 14.336 288.5404448 100.1244448 288.5404448 238.6147552 0 157.74151147-215.2675552 441.91288853-341.33333333 441.9128896-126.06577813 0-341.33333333-284.17137813-341.33333333-441.9128896 0-138.4448 116.37191147-224.2787552 288.5404448-238.6147552zM512 853.33333333c97.75786667 0 295.82222187-261.5068448 295.82222187-396.40177813 0-121.51466667-117.10008853-195.24266667-295.82222187-195.24266667s-295.82222187 73.728-295.82222187 195.24266667c0 134.89493333 198.0643552 396.40177813 295.82222187 396.40177813zM329.9555552 420.97777813a22.7555552 22.7555552 0 0 1 45.51111147 0v45.5111104a22.7555552 22.7555552 0 1 1-45.51111147 0v-45.5111104z m318.57777813 0a22.7555552 22.7555552 0 1 1 45.51111147 0v45.5111104a22.7555552 22.7555552 0 1 1-45.51111147 0v-45.5111104z m-227.5555552 227.5555552a22.7555552 22.7555552 0 1 1 45.5111104 0v45.51111147a22.7555552 22.7555552 0 1 1-45.5111104 0v-45.51111147z m136.53333334 0a22.7555552 22.7555552 0 1 1 45.5111104 0v45.51111147a22.7555552 22.7555552 0 1 1-45.5111104 0v-45.51111147z m-68.26666667-227.5555552a22.7555552 22.7555552 0 1 1 45.5111104 0v45.5111104a22.7555552 22.7555552 0 1 1-45.5111104 0v-45.5111104z" /></svg>