<?xml version="1.0" standalone="no"?><!DOCTYPE svg PUBLIC "-//W3C//DTD SVG 1.1//EN" "http://www.w3.org/Graphics/SVG/1.1/DTD/svg11.dtd"><svg viewBox="0 0 1024 1024" version="1.1" xmlns="http://www.w3.org/2000/svg" xmlns:xlink="http://www.w3.org/1999/xlink" width="81" height="81"><path d="M462.848 740.16237037c-33.13208889 0-66.14281482-9.70903703-94.78447408-28.76302222-55.58423703-37.13706667-83.61908148-101.21671111-76.70139259-175.9762963 0.72817778-7.64586667 2.66998518-15.04900741 5.82542222-21.9666963 27.67075555-60.07466667 74.51685925-99.63899259 131.92154075-111.16847407 21.60260741-4.36906667 37.13706667-22.81623703 37.62251852-44.9042963 1.33499259-62.98737778 28.5202963-123.42613333 74.51685926-165.90317036 24.02986667-22.20942222 52.30743703-38.95751111 83.98317037-49.88017779 33.7389037-11.65084445 70.63324445-16.384 109.83348147-14.0781037 17.47626667 0.9709037 34.22435555 5.5826963 49.88017778 13.34992592 46.60337778 23.42305185 83.13362963 55.09878518 108.61985185 94.29902223 23.30168889 35.92343703 36.28752592 77.30820741 37.62251853 119.78524444 2.54862222 85.68225185-41.99158518 165.41771852-116.0229926 208.25884445L543.06891852 720.25884445c-0.84954075 0.48545185-1.82044445 0.9709037-2.66998519 1.21362963-24.39395555 12.50038518-51.09380741 18.6898963-77.55093333 18.68989629zM715.88977778 163.32420741c-59.34648889 0-110.80438518 18.81125925-149.88325926 54.85605926-38.83614815 35.80207408-61.65238518 86.77451852-62.86601482 139.9314963-0.84954075 39.3216-28.27757037 72.0896-66.74962962 79.85682962-45.75383703 9.22358518-83.37635555 41.38477037-106.07122963 90.65813333-1.45635555 3.15543703-2.42725925 6.5536-2.6699852 10.07312593-5.5826963 61.04557037 16.50536297 112.86755555 60.6814815 142.35875556 41.02068148 27.42802963 93.57084445 30.09801482 137.14014814 7.16041481 0.48545185-0.24272592 0.84954075-0.48545185 1.33499259-0.60681481l270.27531852-156.07277038c62.50192592-36.0448 100.00308148-103.40124445 97.93991111-175.6122074-2.3058963-77.06548148-48.30245925-143.57238518-126.21748148-182.65125926-11.16539259-5.5826963-23.18032592-8.8594963-35.80207408-9.58767407-5.82542222-0.24272592-11.52948148-0.36408889-17.11217777-0.36408889z m-406.44456296 373.79792592z" /><path d="M709.5789037 508.7232c-6.31087408 0-12.37902222-3.2768-15.77718518-9.10222222-4.97588148-8.73813333-2.06317037-19.78216297 6.67496296-24.87940741 61.40965925-35.43798518 84.83271111-112.86755555 53.27834074-176.21902222-4.49042963-8.98085925-0.84954075-19.90352592 8.25268148-24.39395556 8.98085925-4.49042963 19.90352592-0.84954075 24.39395555 8.25268149 39.92841482 80.58500741 10.19448889 178.88900741-67.72053333 223.91466667-2.79134815 1.57771852-5.94678518 2.42725925-9.10222222 2.42725925z" /><path d="M200.94672592 852.66583703c-27.67075555 0-54.61333333-14.32082963-69.41961481-39.92841481-6.67496297-11.40811852-10.19448889-24.02986667-10.67994074-37.0157037-11.04402963-6.91768889-20.14625185-16.26263703-26.69985185-27.79211852-22.08805925-38.22933333-8.8594963-87.25997037 29.24847407-109.22666667 17.47626667-10.07312592 38.10797037-13.22856297 57.76877038-8.73813333 13.95674075 3.15543703 26.69985185 9.95176297 36.89434073 19.6608l82.04136297-47.33155555c8.73813333-4.97588148 19.78216297-2.06317037 24.87940741 6.67496296 4.97588148 8.73813333 2.06317037 19.78216297-6.67496297 24.87940741l-95.0272 54.85605926c-8.25268148 4.73315555-18.6898963 2.42725925-24.15122963-5.46133333-12.74311111-18.56853333-38.10797037-24.27259259-57.6474074-12.98583705-20.75306667 12.01493333-27.91348148 38.71478518-15.89854816 59.58921482 4.85451852 8.37404445 12.01493333 14.68491852 20.87442963 18.44717037 7.5245037 3.15543703 12.1362963 11.04402963 11.04402963 19.17534814-1.21362963 9.46631111 0.72817778 18.93262222 5.46133334 27.30666667 12.01493333 20.75306667 38.71478518 27.91348148 59.58921481 15.89854815 19.17534815-11.04402963 26.94257778-34.70980741 18.20444445-54.97742222-3.64088889-8.49540741-0.36408889-18.32580741 7.64586667-22.9376l99.39626666-57.40468148c8.73813333-4.97588148 19.78216297-2.06317037 24.87940741 6.67496296 4.97588148 8.73813333 2.06317037 19.78216297-6.67496297 24.87940741l-86.77451852 50.1229037c6.79632592 33.01072592-8.13131852 67.72053333-38.47205925 85.1968-12.50038518 6.91768889-26.2144 10.43721482-39.80705186 10.43721481z" /></svg>