<?xml version="1.0" standalone="no"?><!DOCTYPE svg PUBLIC "-//W3C//DTD SVG 1.1//EN" "http://www.w3.org/Graphics/SVG/1.1/DTD/svg11.dtd"><svg viewBox="0 0 1024 1024" version="1.1" xmlns="http://www.w3.org/2000/svg" xmlns:xlink="http://www.w3.org/1999/xlink" width="81" height="81"><path d="M430.93333333 561.70666667c-4.05333333 0-8.21333333-1.6-11.30666666-4.69333334-6.29333333-6.29333333-6.29333333-16.42666667 0-22.61333333 26.45333333-26.45333333 26.45333333-69.54666667 0-96l-10.45333334-10.45333333c-19.52-19.52-29.86666667-45.33333333-29.22666666-72.85333334 0.64-27.52 12.16-52.90666667 32.53333333-71.46666666l29.22666667-26.66666667c6.50666667-5.97333333 16.64-5.44 22.61333333 1.06666667s5.44 16.64-1.06666667 22.61333333l-29.22666666 26.66666667c-13.86666667 12.58666667-21.65333333 29.86666667-22.08 48.53333333-0.42666667 18.66666667 6.61333333 36.26666667 19.84 49.49333333l10.45333333 10.45333334c38.93333333 38.93333333 38.93333333 102.29333333 0 141.22666666-3.09333333 3.09333333-7.25333333 4.69333333-11.30666667 4.69333334zM316.37333333 561.70666667c-4.05333333 0-8.21333333-1.6-11.30666666-4.69333334-6.29333333-6.29333333-6.29333333-16.42666667 0-22.61333333 26.45333333-26.45333333 26.45333333-69.54666667 0-96l-10.45333334-10.45333333c-19.52-19.52-29.86666667-45.33333333-29.22666666-72.85333334 0.64-27.52 12.16-52.90666667 32.53333333-71.46666666 6.50666667-5.97333333 16.64-5.44 22.61333333 1.06666666s5.44 16.64-1.06666666 22.61333334c-13.86666667 12.58666667-21.65333333 29.86666667-22.08 48.53333333s6.61333333 36.26666667 19.84 49.49333333l10.45333333 10.45333334c38.93333333 38.93333333 38.93333333 102.29333333 0 141.22666666-3.09333333 3.09333333-7.14666667 4.69333333-11.30666667 4.69333334zM541.97333333 561.70666667c-4.05333333 0-8.21333333-1.6-11.30666666-4.69333334-6.29333333-6.29333333-6.29333333-16.42666667 0-22.61333333 12.8-12.8 19.84-29.86666667 19.84-48s-7.04-35.2-19.84-48l-10.45333334-10.45333333c-19.52-19.52-29.86666667-45.33333333-29.22666666-72.85333334 0.64-27.52 12.16-52.90666667 32.53333333-71.46666666l55.57333333-50.66666667c6.50666667-5.97333333 16.64-5.44 22.61333334 1.06666667s5.44 16.64-1.06666667 22.61333333L545.06666667 307.2c-13.86666667 12.58666667-21.65333333 29.86666667-22.08 48.53333333-0.42666667 18.66666667 6.61333333 36.26666667 19.84 49.49333334l10.45333333 10.45333333c18.88 18.88 29.22666667 43.94666667 29.22666667 70.61333333s-10.34666667 51.73333333-29.22666667 70.61333334c-3.09333333 3.2-7.14666667 4.8-11.30666667 4.8z" /><path d="M210.13333333 312.64c-7.68 0-14.50666667-5.54666667-15.78666666-13.44-1.38666667-8.74666667 4.48-16.96 13.22666666-18.34666667l696.42666667-112.42666666c8.74666667-1.38666667 16.96 4.48 18.34666667 13.22666666 1.38666667 8.74666667-4.48 16.96-13.22666667 18.34666667L212.8 312.42666667c-0.96 0.21333333-1.81333333 0.21333333-2.66666667 0.21333333zM515.30666667 381.54666667c-8.64 0-15.78666667-6.93333333-16-15.57333334-0.21333333-8.85333333 6.72-16.21333333 15.57333333-16.42666666l386.56-10.13333334h0.42666667c8.64 0 15.78666667 6.93333333 16 15.57333334 0.21333333 8.85333333-6.72 16.21333333-15.57333334 16.42666666l-386.56 10.13333334h-0.42666666zM222.61333333 389.22666667c-8.64 0-15.78666667-6.93333333-16-15.57333334-0.21333333-8.85333333 6.72-16.21333333 15.57333334-16.42666666l55.89333333-1.49333334h0.42666667c8.64 0 15.78666667 6.93333333 16 15.57333334 0.21333333 8.85333333-6.72 16.21333333-15.57333334 16.42666666l-55.89333333 1.49333334h-0.42666667z" /><path d="M841.92 652.69333333H172.8c-8.85333333 0-16-7.14666667-16-16s7.14666667-16 16-16h669.22666667c8.85333333 0 16 7.14666667 16 16s-7.25333333 16-16.10666667 16z" /><path d="M574.61333333 876.48H440.96c-75.62666667 0-147.09333333-29.12-201.28-81.81333333-54.4-53.01333333-84.90666667-123.73333333-86.08-199.14666667V550.4c0-8.85333333 7.14666667-16 16-16h676.26666667c8.85333333 0 16 7.14666667 16 16V595.52c-1.17333333 75.41333333-31.68 146.13333333-85.97333334 199.14666667-54.18666667 52.69333333-125.65333333 81.81333333-201.28 81.81333333zM185.6 566.4V594.98666667c2.02666667 137.6 116.58666667 249.49333333 255.25333333 249.49333333h133.65333334c138.66666667 0 253.22666667-111.89333333 255.25333333-249.49333333V566.4H185.6z" /></svg>