<?xml version="1.0" standalone="no"?><!DOCTYPE svg PUBLIC "-//W3C//DTD SVG 1.1//EN" "http://www.w3.org/Graphics/SVG/1.1/DTD/svg11.dtd"><svg t="1599918410141" class="icon" viewBox="0 0 1025 1024" version="1.1" xmlns="http://www.w3.org/2000/svg" p-id="1132" data-spm-anchor-id="a313x.7781069.0.i1" xmlns:xlink="http://www.w3.org/1999/xlink" width="200.1953125" height="200"><defs><style type="text/css"></style></defs><path d="M778.478908 1002.496c-12.288 0-24.576-3.072-37.888-10.24L533.742908 883.712c-5.12-3.072-12.288-5.12-20.48-5.12-7.168 0-15.36 2.048-20.48 4.096L286.958908 992.256c-12.288 7.168-24.576 10.24-38.912 10.24-24.576 0-48.128-11.264-64.512-29.696-16.384-18.432-22.528-43.008-18.432-67.584L205.038908 675.84c2.048-14.336-3.072-28.672-13.312-38.912L25.838908 476.16c-23.552-22.528-31.744-55.296-21.504-86.016 10.24-30.72 35.84-52.224 67.584-57.344l229.376-33.792c14.336-2.048 27.648-11.264 33.792-23.552l102.4-208.896C451.822908 37.888 480.494908 20.48 512.238908 20.48c31.744 0 60.416 17.408 74.752 46.08l102.4 208.896c7.168 13.312 19.456 21.504 33.792 23.552L952.558908 332.8c31.744 5.12 57.344 26.624 67.584 56.32 10.24 30.72 2.048 63.488-20.48 86.016L834.798908 636.928c-11.264 10.24-15.36 24.576-13.312 38.912L860.398908 904.192c4.096 24.576-2.048 49.152-18.432 67.584C826.606908 991.232 803.054908 1002.496 778.478908 1002.496zM765.166908 940.032c5.12 2.048 9.216 3.072 12.288 3.072 7.168 0 14.336-3.072 19.456-9.216 5.12-6.144 6.144-14.336 5.12-19.456l-38.912-228.352c-6.144-32.768 5.12-68.608 29.696-91.136l164.864-162.816c6.144-6.144 8.192-15.36 6.144-25.6-3.072-9.216-10.24-15.36-20.48-16.384l-229.376-33.792c-33.792-5.12-63.488-25.6-77.824-56.32l-102.4-207.872c-4.096-9.216-12.288-13.312-21.504-13.312-9.216 0-17.408 5.12-22.528 14.336l-102.4 206.848c-14.336 29.696-44.032 51.2-77.824 56.32L80.110908 390.144c-9.216 2.048-16.384 8.192-19.456 16.384l0 1.024c-3.072 9.216-1.024 17.408 6.144 24.576l165.888 162.816c24.576 23.552 34.816 57.344 29.696 91.136l-38.912 228.352c-1.024 5.12-1.024 12.288 5.12 18.432 5.12 6.144 12.288 9.216 19.456 9.216 5.12 0 8.192-1.024 11.264-2.048l206.848-108.544c13.312-8.192 29.696-12.288 47.104-12.288 15.36 0 31.744 4.096 47.104 12.288L765.166908 940.032z" p-id="1133" fill="#F1C40F"></path></svg>