<?xml version="1.0" standalone="no"?><!DOCTYPE svg PUBLIC "-//W3C//DTD SVG 1.1//EN" "http://www.w3.org/Graphics/SVG/1.1/DTD/svg11.dtd"><svg viewBox="0 0 1024 1024" version="1.1" xmlns="http://www.w3.org/2000/svg" xmlns:xlink="http://www.w3.org/1999/xlink" width="84" height="84"><path d="M934.225 674.439c-94.089 98.72-212.562 175.386-340.329 197.44-85.945 15.107-196.29 3.497-271.775-46.454-72.02-47.619-120.805-130.083-123.12-216.027-2.331-127.767 17.422-248.572 89.426-347.291 38.325-51.101 87.11-85.945 141.708-105.698 65.041-23.235 157.964-29.031 223.006 0 53.432 24.4 99.885 69.688 116.142 123.12 25.55 81.298 26.716 171.905 6.978 254.369-13.941 59.229-51.116 148.67-101.051 184.68-11.625 9.278-25.55-5.813-23.235-17.422l76.667-463.449H597.393l-6.978 42.988c-45.288-25.55-89.426-38.341-141.692-32.529-51.116 5.813-97.57 31.363-128.933 76.667-36.01 52.266-55.747 111.495-62.726 176.536-5.797 55.747-3.481 120.805 20.919 171.905 19.738 39.491 54.582 70.854 97.554 83.629 49.951 13.941 104.532 0 146.355-22.069 8.128 32.513 31.363 48.785 59.229 55.747 36.01 8.128 85.96-2.316 116.158-15.091 90.592-38.341 162.611-112.676 192.808-207.915 34.844-111.495 29.032-239.262-24.4-336.832-42.972-77.816-112.661-126.601-196.29-149.836-101.051-27.866-220.674-19.737-319.41 16.272-97.57 34.844-183.515 97.554-233.449 192.808-48.785 91.757-76.667 218.359-63.891 333.335 12.775 106.864 60.394 195.14 146.355 255.534 75.485 53.432 164.927 73.17 255.518 75.501 95.239 3.481 180.033-12.775 267.144-58.079C812.255 848.66 888.921 775.49 947 683.717l-12.775-9.278z m-406.52-17.422c-12.791 8.128-27.882 16.256-42.988 22.069-23.219 9.278-45.288 9.278-61.56 0-16.256-8.144-27.866-25.566-32.513-49.951-15.106-85.945 5.813-191.643 40.657-255.534 18.572-33.678 59.229-53.416 96.404-42.972 18.572 4.647 39.475 13.941 51.101 19.753l-51.101 306.635z" /></svg>