<svg viewBox="0 0 1024 1024" version="1.1" xmlns="http://www.w3.org/2000/svg" p-id="1304" width="81" height="81"><path d="M928.15625 579.40625h-79.125c-2.90625-49.78125-17.625-98.15625-41.0625-140.625 54.1875-13.21875 93.75-57.1875 93.75-108.46875 0-13.21875-11.71875-23.4375-26.34375-23.4375s-26.34375 10.21875-26.34375 23.4375c0 35.15625-29.34375 63-67.40625 67.40625-8.8125-11.71875-19.03125-23.4375-29.34375-35.15625-5.90625-5.90625-11.71875-11.71875-17.625-16.125 7.3125-20.53125 10.21875-41.0625 10.21875-61.5C744.875 172.15625 639.40625 79.8125 510.40625 79.8125s-234.46875 92.34375-234.46875 205.125c0 20.53125 4.40625 42.46875 10.21875 61.5-5.90625 5.90625-11.71875 10.21875-17.625 16.125-10.21875 10.21875-20.53125 21.9375-29.34375 35.15625-38.0625-4.40625-67.40625-33.65625-67.40625-67.40625 0-13.21875-11.71875-23.4375-26.34375-23.4375s-26.34375 10.21875-26.34375 23.4375c0 51.28125 39.5625 95.25 93.75 108.46875-23.4375 42.46875-36.65625 90.84375-41.0625 140.625h-75.9375c-14.625 0-26.34375 10.21875-26.34375 23.4375s11.71875 23.4375 26.34375 23.4375h79.125c2.90625 49.78125 17.625 98.15625 41.0625 140.625-54.1875 13.21875-93.75 57.1875-93.75 108.46875 0 13.21875 11.71875 23.4375 26.34375 23.4375s26.34375-10.21875 26.34375-23.4375c0-35.15625 29.34375-63 67.40625-67.40625 8.8125 11.71875 19.03125 23.4375 29.34375 35.15625C336.21875 909.03125 421.15625 944.1875 512 944.1875s175.78125-36.5625 240.28125-101.0625c10.21875-10.21875 20.53125-21.9375 29.34375-35.15625 38.0625 4.40625 67.40625 33.65625 67.40625 67.40625 0 13.21875 11.71875 23.4375 26.34375 23.4375s26.34375-10.21875 26.34375-23.4375c0-51.28125-39.5625-95.25-93.75-108.46875 23.4375-42.46875 36.65625-90.84375 41.0625-140.625h79.125c14.625 0 26.34375-10.21875 26.34375-23.4375s-13.21875-23.4375-26.34375-23.4375zM512 131c93.75 0 168.46875 65.90625 168.46875 148.03125 0 8.8125-1.5 17.625-2.90625 26.34375C627.78125 274.625 570.59375 257 512 257c-60.09375 0-117.1875 16.125-165.5625 48.375-1.5-8.8125-2.90625-17.625-2.90625-26.34375 0-82.03125 74.71875-148.03125 168.46875-148.03125zM230.65625 601.34375c0-148.03125 109.875-271.03125 250.59375-284.25v568.5c-140.71875-13.125-250.59375-134.71875-250.59375-284.25z m312.09375 284.25V318.59375c140.625 13.21875 250.59375 134.8125 250.59375 282.75S683.46875 872.46875 542.75 885.59375z" /></svg>