<?xml version="1.0" standalone="no"?><!DOCTYPE svg PUBLIC "-//W3C//DTD SVG 1.1//EN" "http://www.w3.org/Graphics/SVG/1.1/DTD/svg11.dtd"><svg viewBox="0 0 1024 1024" version="1.1" xmlns="http://www.w3.org/2000/svg" xmlns:xlink="http://www.w3.org/1999/xlink" width="200" height="200"><path d="M798.758 373.71h48.743c-24.974-62.793-66.801-115.811-119.227-154.443-59.578-43.906-132.905-69.244-210.781-69.244-77.877 0-151.202 25.338-210.781 69.244-52.428 38.633-94.252 91.65-119.226 154.443h36.649c13.824 0 26.473 5.69 35.683 14.855l0.049 0.057 0.055 0.047c9.179 9.209 14.857 21.853 14.857 35.683v261.945c0 13.838-5.69 26.472-14.857 35.684l-0.055 0.044-0.049 0.058c-9.21 9.179-21.854 14.854-35.683 14.854h-59.029c-30.113 0-57.505-12.332-77.369-32.188l-0.102-0.102c-19.852-19.864-32.188-47.255-32.188-77.363V483.375c0-30.186 12.331-57.607 32.194-77.471l0.053 0.053c12.058-12.052 26.866-21.333 43.356-26.781 26.933-82.614 78.645-152.116 145.341-201.27 68.221-50.273 152.092-79.282 241.101-79.282 89.004 0 172.881 29.008 241.102 79.282 68.225 50.279 120.78 121.851 147.162 206.96a110.937 110.937 0 0 1 29.441 21.09l0.053-0.053c19.864 19.864 32.196 47.285 32.196 77.471v143.909c0 30.108-12.336 57.499-32.188 77.363l-0.102 0.102c-19.864 19.855-47.259 32.188-77.371 32.188h-16.381l6.668 4.748c-38.188 53.37-88.051 95.872-144.725 125-56.787 29.189-120.37 45.037-185.856 45.037l-2.038-0.004c-8.404 8.768-20.244 14.229-33.354 14.229-25.525 0-46.211-20.69-46.211-46.213s20.686-46.209 46.211-46.209c18.563 0 34.57 10.949 41.918 26.74 55.055-1.005 108.27-14.709 155.845-39.162a355.11 355.11 0 0 0 107.883-85.391c-9.464-2.136-17.972-6.958-24.673-13.63l-0.049-0.058-0.053-0.044c-9.179-9.212-14.859-21.838-14.859-35.684V424.352c0-13.83 5.681-26.473 14.859-35.683l0.053-0.047 0.049-0.057c9.214-9.179 21.839-14.855 35.686-14.855zM223.38 425.108h-58.274c-16.059 0-30.619 6.528-41.125 17.034v0.102c-10.571 10.57-17.136 25.136-17.136 41.131v143.909c0 16.03 6.549 30.609 17.083 41.172 10.563 10.533 25.143 17.084 41.178 17.084h58.274V425.108z m634.407 0h-58.273V685.54h58.273c16.034 0 30.617-6.551 41.18-17.084 10.533-10.563 17.08-25.142 17.08-41.172V483.375c0-15.995-6.566-30.561-17.134-41.131v-0.102c-10.505-10.505-25.067-17.034-41.126-17.034z" fill="#2c2c2c" /></svg>