<?xml version="1.0" standalone="no"?><!DOCTYPE svg PUBLIC "-//W3C//DTD SVG 1.1//EN" "http://www.w3.org/Graphics/SVG/1.1/DTD/svg11.dtd"><svg viewBox="0 0 1024 1024" version="1.1" xmlns="http://www.w3.org/2000/svg" xmlns:xlink="http://www.w3.org/1999/xlink" width="200" height="200"><path d="M191.825 155.411h639.133c31.777 0 60.641 12.979 81.549 33.885 20.908 20.908 33.886 49.78 33.886 81.547v386.981c0 31.773-12.978 60.642-33.886 81.55s-49.771 33.881-81.549 33.881H617.095c-51.358 65.264-86.005 97.265-115.505 96.842-34.341-0.48-51.522-33.026-64.004-96.842h-245.76c-31.77 0-60.641-12.973-81.547-33.881-20.908-20.908-33.885-49.776-33.885-81.55v-386.98c0-31.767 12.977-60.639 33.885-81.547 20.905-20.907 49.776-33.886 81.546-33.886zM321.3 397.295h4.778c26.955 0 48.999 22.043 48.999 48.999v0.006c0 26.955-22.043 49.005-48.999 49.005H321.3c-26.955 0-48.999-22.05-48.999-49.005v-0.006c0-26.955 22.044-48.999 48.999-48.999z m370.743 0h4.777c26.956 0 48.999 22.043 48.999 48.999v0.006c0 26.955-22.043 49.005-48.999 49.005h-4.777c-26.955 0-48.998-22.05-48.998-49.005v-0.006c0-26.955 22.043-48.999 48.998-48.999z m-188.393 0h4.779c26.953 0 48.997 22.043 48.997 48.999v0.006c0 26.955-22.044 49.005-48.997 49.005h-4.779c-26.953 0-48.999-22.05-48.999-49.005v-0.006c0-26.955 22.046-48.999 48.999-48.999z m327.308-190.478H191.825c-17.576 0-33.59 7.215-45.2 18.827-11.614 11.612-18.827 27.626-18.827 45.2v386.981c0 17.58 7.213 33.589 18.827 45.202 11.61 11.614 27.625 18.825 45.2 18.825H480.773l3.555 21.583c8.232 49.979 13.602 75.405 17.866 75.462 11.309 0.163 36.949-28.559 82.164-87.002l7.764-10.043h238.836c17.583 0 33.592-7.211 45.202-18.825 11.613-11.613 18.828-27.622 18.828-45.202V270.844c0-17.574-7.215-33.588-18.828-45.2-11.61-11.612-27.619-18.827-45.202-18.827z" fill="#2c2c2c" /></svg>