<?xml version="1.0" standalone="no"?><!DOCTYPE svg PUBLIC "-//W3C//DTD SVG 1.1//EN" "http://www.w3.org/Graphics/SVG/1.1/DTD/svg11.dtd"><svg viewBox="0 0 1024 1024" version="1.1" xmlns="http://www.w3.org/2000/svg" xmlns:xlink="http://www.w3.org/1999/xlink" width="84" height="84"><path d="M847.6 853.6L112.6 130.2c-11.2-11-29.2-11-40.2 0.2-11 11-11 29 0 40l735 723.4c7.4 7.4 18 9.8 27.4 7.2 4.8-1.2 9.2-3.8 12.8-7.4 11.2-11 11.2-29 0-40zM128 338c0 74 30.4 179 93.6 265.4C342 768 544 912 544 912s58.6-40.6 131.4-103.2L136 278c-5.2 19.2-8 39.2-8 60z m740.4 265.4C931.6 517 960 412 960 338c0-124.2-100.2-224.8-224-226h-2c-79.4 0-149.6 42-190 104-40.4-62-110.6-104-190-104h-2c-58.4 0.6-111.6 23.2-151.4 60l563.8 554.8c38.6-38.2 72.4-80 104-123.4z" fill="#707070" /></svg>