<?xml version="1.0" standalone="no"?><!DOCTYPE svg PUBLIC "-//W3C//DTD SVG 1.1//EN" "http://www.w3.org/Graphics/SVG/1.1/DTD/svg11.dtd"><svg viewBox="0 0 1024 1024" version="1.1" xmlns="http://www.w3.org/2000/svg" xmlns:xlink="http://www.w3.org/1999/xlink" width="81" height="81"><path d="M811.72076416 498.65733338v15.44952393c0 37.54234314-7.33852387 74.00321961-21.86107636 108.22391509-13.98181915 33.13922883-34.06620026 62.87956238-59.63516235 88.37127686s-55.30929565 45.57609558-88.37127685 59.63516235C607.55530548 784.78251648 571.17167664 792.19828797 533.62933349 792.19828797h-44.03114318c-37.54234314 0-74.00321961-7.33852387-108.22391511-21.86107636-33.13922883-13.98181915-62.87956238-34.06620026-88.37127684-59.63516234s-45.57609558-55.30929565-59.63516236-88.37127687C218.84528351 588.03282929 211.50675964 551.64920044 211.50675964 514.10685731v-15.44952393h600.21400452m0-46.34857178H211.50675964c-25.56896211 0-46.34857177 20.77960969-46.34857177 46.34857178v15.44952393c0 179.21447754 145.2255249 324.44000244 324.44000244 324.44000243h44.03114318c179.21447754 0 324.44000244-145.2255249 324.44000245-324.44000243v-15.44952393c0-25.64620972-20.77960969-46.34857177-46.34857178-46.34857178z" fill="#2c2c2c" /><path d="M658.69322968 553.11690522H195.28475953c-6.41155243 0-11.58714294-5.17559052-11.58714295-11.58714296s5.17559052-11.58714294 11.58714295-11.58714294h463.40847015c6.41155243 0 11.58714294 5.17559052 11.58714295 11.58714294s-5.17559052 11.58714294-11.58714295 11.58714296zM836.36275482 553.11690522H712.84381104c-6.41155243 0-11.58714294-5.17559052-11.58714295-11.58714296s5.17559052-11.58714294 11.58714295-11.58714294h123.51894378c6.41155243 0 11.58714294 5.17559052 11.58714294 11.58714294s-5.17559052 11.58714294-11.58714294 11.58714296zM286.97768401 599.85171509h-88.06228637c-6.41155243 0-11.58714294-5.17559052-11.58714294-11.58714294s5.17559052-11.58714294 11.58714294-11.58714294h88.06228638c6.41155243 0 11.58714294 5.17559052 11.58714295 11.58714294s-5.17559052 11.58714294-11.58714295 11.58714294zM302.42720794 646.20028687h-88.06228637c-6.41155243 0-11.58714294-5.17559052-11.58714294-11.58714295s5.17559052-11.58714294 11.58714294-11.58714294h88.06228638c6.41155243 0 11.58714294 5.17559052 11.58714294 11.58714294s-5.17559052 11.58714294-11.58714294 11.58714295zM317.87673187 692.54885864h-88.06228637c-6.41155243 0-11.58714294-5.17559052-11.58714294-11.58714294s5.17559052-11.58714294 11.58714294-11.58714294h88.06228638c6.41155243 0 11.58714294 5.17559052 11.58714294 11.58714294s-5.17559052 11.58714294-11.58714294 11.58714294zM348.77577972 738.89743042h-88.06228637c-6.41155243 0-11.58714294-5.17559052-11.58714295-11.58714294s5.17559052-11.58714294 11.58714295-11.58714295h88.06228638c6.41155243 0 11.58714294 5.17559052 11.58714294 11.58714295s-5.17559052 11.58714294-11.58714294 11.58714294zM402.84911346 785.2460022h-88.06228637c-6.41155243 0-11.58714294-5.17559052-11.58714294-11.58714294s5.17559052-11.58714294 11.58714294-11.58714294h88.06228638c6.41155243 0 11.58714294 5.17559052 11.58714294 11.58714294s-5.17559052 11.58714294-11.58714294 11.58714294zM481.10095214 434.54180908H365.22952271c-55.38654328 0-100.42190552-45.03536225-100.42190552-100.42190551 0-12.82310486 10.35118103-23.17428589 23.17428588-23.17428589h270.3666687c12.82310486 0 23.17428589 10.35118103 23.17428589 23.17428589 0 55.38654328-45.03536225 100.42190552-100.42190552 100.42190551zM316.4090271 357.29418945c8.72898102 18.23043823 27.34565735 30.89904786 48.82049561 30.89904786h115.87142944c21.55208588 0 40.16876221-12.66860962 48.82049561-30.89904786H316.4090271z" fill="#2c2c2c" /><path d="M544.44400024 400.55285645c-5.56182862 0-11.20090485-2.00843811-15.68126678-6.10256196-9.42420959-8.6517334-10.04219055-23.32878113-1.39045715-32.75299071 2.70366669-2.93540955 5.33008576-6.17980958 8.11100006-9.57870484 13.44108581-16.60823823 30.2810669-37.31060029 83.4274292-62.1843338 61.87534333-28.89060974 207.33261109-50.44269562 213.51242065-51.36966706 12.66860962-1.85394287 24.41024781 6.87503815 26.26419068 19.54364777 1.85394287 12.66860962-6.87503815 24.41024781-19.54364777 26.26419068-1.46770478 0.23174287-144.83928681 21.47483826-200.53482055 47.50728607-43.49040985 20.31612397-55.46379089 35.07041932-66.97368623 49.36122894-3.08990479 3.78513337-6.25705719 7.72476196-9.88769531 11.74163819-4.78935242 5.02109528-11.04640961 7.57026672-17.3034668 7.57026672z" fill="#2c2c2c" /><path d="M476.85233307 276.72492218c-11.27815247-9.73320007-14.36805725-32.289505 0.54073334-45.2671051s4.63485718-38.08307648-2.08568574-44.10839081" fill="#2c2c2c" /><path d="M476.85233307 288.31206512c-2.70366669 0-5.40733338-0.92697143-7.57026673-2.78091429-8.49723816-7.33852387-13.59558106-19.00291443-13.59558106-31.36253357s4.94384766-23.48327637 14.05906678-31.4397812c0.84972382-0.7724762 3.5533905-3.08990479 3.70788574-9.03797149 0.15449524-7.87925721-4.09412384-15.99025727-5.87081909-17.76695251-4.78935242-4.24861909-5.17559052-11.58714294-0.84972381-16.37649538 4.24861909-4.78935242 11.58714294-5.17559052 16.37649536-0.8497238 6.64329529 5.94806672 13.67282868 20.23887635 13.59558105 34.83867645-0.07724763 10.81466675-4.09412384 20.00713349-11.66439056 26.57318116-5.09834289 4.40311432-6.17980958 10.04219055-6.10256195 13.90457152 0 5.484581 2.16293335 10.89191438 5.56182862 13.82732392 4.86660004 4.17137146 5.40733338 11.50989533 1.23596191 16.37649536-2.39467621 2.70366669-5.63907623 4.09412384-8.88347626 4.09412384z" fill="#2c2c2c" /><path d="M413.97277069 276.72492218c-11.27815247-9.73320007-14.36805725-32.289505 0.54073334-45.2671051s4.63485718-38.08307648-2.08568572-44.10839081" fill="#2c2c2c" /><path d="M413.97277069 288.31206512c-2.70366669 0-5.40733338-0.92697143-7.57026672-2.78091429-8.49723816-7.33852387-13.59558106-19.00291443-13.59558105-31.36253357s4.94384766-23.48327637 14.05906677-31.4397812c0.84972382-0.7724762 3.5533905-3.08990479 3.70788574-9.03797149 0.15449524-7.87925721-4.09412384-15.99025727-5.87081909-17.76695251-4.78935242-4.24861909-5.17559052-11.58714294-0.84972382-16.37649538 4.24861909-4.78935242 11.58714294-5.17559052 16.37649536-0.8497238 6.64329529 5.94806672 13.67282868 20.23887635 13.59558105 34.83867645-0.07724763 10.81466675-4.09412384 20.00713349-11.66439056 26.57318116-5.09834289 4.40311432-6.17980958 10.04219055-6.10256195 13.90457152 0 5.484581 2.16293335 10.89191438 5.56182861 13.82732392 4.86660004 4.17137146 5.40733338 11.50989533 1.23596192 16.37649536-2.39467621 2.70366669-5.63907623 4.09412384-8.88347626 4.09412384z" fill="#2c2c2c" /><path d="M352.17467499 276.72492218c-11.27815247-9.73320007-14.36805725-32.289505 0.54073334-45.2671051s4.63485718-38.08307648-2.08568573-44.10839081" fill="#2c2c2c" /><path d="M352.17467499 288.31206512c-2.70366669 0-5.40733338-0.92697143-7.57026672-2.78091429-8.49723816-7.33852387-13.59558106-19.00291443-13.59558105-31.36253357s4.94384766-23.48327637 14.05906677-31.4397812c0.84972382-0.7724762 3.5533905-3.08990479 3.70788573-9.03797149 0.15449524-7.87925721-4.09412384-15.99025727-5.87081909-17.76695251-4.78935242-4.24861909-5.17559052-11.58714294-0.84972381-16.37649538 4.24861909-4.78935242 11.58714294-5.17559052 16.37649536-0.8497238 6.64329529 5.94806672 13.67282868 20.23887635 13.59558105 34.83867645-0.07724763 10.81466675-4.09412384 20.00713349-11.66439056 26.57318116-5.09834289 4.40311432-6.17980958 10.04219055-6.10256195 13.90457152 0 5.484581 2.16293335 10.89191438 5.56182861 13.82732392 4.86660004 4.17137146 5.40733338 11.50989533 1.23596192 16.37649536-2.39467621 2.70366669-5.63907623 4.09412384-8.88347626 4.09412384z" fill="#2c2c2c" /></svg>