<?xml version="1.0" standalone="no"?><!DOCTYPE svg PUBLIC "-//W3C//DTD SVG 1.1//EN" "http://www.w3.org/Graphics/SVG/1.1/DTD/svg11.dtd"><svg viewBox="0 0 1024 1024" version="1.1" xmlns="http://www.w3.org/2000/svg" xmlns:xlink="http://www.w3.org/1999/xlink" width="81" height="81"><path d="M922.75699358 608.05473975H110.69313581c-10.74466765 0-19.41807408-8.67340642-19.41807408-19.41807406s8.67340642-19.41807408 19.41807408-19.41807408h812.1933116c10.74466765 0 19.41807408 8.67340642 19.41807407 19.41807408s-8.80286025 19.41807408-19.5475279 19.41807406z" /><path d="M598.34570272 879.64886914H436.14005728c-91.78276347 0-178.51682765-35.34089482-244.27937185-99.29108544-65.89199803-64.20909827-103.04524642-150.03698569-104.33978468-241.69029531V483.9085195c0-10.74466765 8.67340642-19.41807408 19.41807407-19.41807407h820.7372642c10.74466765 0 19.41807408 8.67340642 19.41807407 19.41807407V538.66748839c-1.4239921 91.52385581-38.44778667 177.3517432-104.3397847 241.69029531-65.89199803 63.95019061-152.62606222 99.29108543-244.40882567 99.29108544zM126.22759506 503.32659358V538.02021925c2.58907653 166.99543703 141.49303309 302.79250173 309.91246222 302.79250173h162.20564544c168.28997531 0 307.32338569-135.79706469 309.78300839-302.79250173V503.32659358H126.22759506z" /><path d="M152.37726815 500.86697086c-9.96794469 0-18.51189728-7.63777581-19.28862025-17.73517433-0.38836148-4.01306864-0.51781531-8.15559111-0.51781531-12.16865973 0-78.83738075 64.20909827-143.04647902 143.04647902-143.04647902 4.53088395 0 9.0617679 0.25890765 13.46319802 0.64726913 9.19122173-70.0345205 69.25779753-124.27567408 141.88139456-124.27567408 27.44421136 0 54.11169975 7.76722963 77.15448099 22.52496593 16.6995437 10.74466765 31.06891852 24.85513482 41.94304 41.16631705 14.88719013-6.2137837 30.81001086-9.45012939 47.12119309-9.45012939 47.25064691 0 89.97040987 27.44421136 110.29466075 68.86943605 13.33374419-4.40143013 27.44421136-6.73159902 41.55467851-6.731599 73.01195852 0 132.30181136 59.41930667 132.30181136 132.30181135 0 7.76722963-0.64726914 15.66391309-2.07126124 23.30168888-1.81235358 10.61521383-11.9097521 17.6057205-22.52496592 15.6639131-10.61521383-1.81235358-17.6057205-11.9097521-15.66391309-22.52496594 0.9061768-5.43706075 1.4239921-11.00357531 1.42399211-16.44063604 0-51.5226232-41.94304-93.4656632-93.46566322-93.46566321-15.27555161 0-29.90383408 3.62470717-43.3670321 10.61521382-5.17815309 2.71853037-11.26248297 2.97743803-16.6995437 0.64726914-5.43706075-2.33016889-9.45012939-6.86105283-11.00357531-12.55702124-10.22685235-35.85871013-43.49648592-60.97275259-80.77918815-60.97275258-15.79336691 0-31.19837235 4.40143013-44.53211654 12.68647506-4.66033778 2.97743803-10.35630617 3.75416098-15.66391309 2.20071505s-9.70903703-5.30760691-12.03920592-10.22685234c-17.21735902-35.85871013-54.11169975-59.03094518-93.98347853-59.03094519-57.47749925 0-104.21033086 46.73283161-104.21033086 104.21033086 0 1.16508445 0 2.33016889 0.12945384 3.49525334 0.25890765 6.08432987-2.45962272 12.03920592-7.37886815 15.79336692-4.78979161 3.88361482-11.13302914 5.17815309-17.08790519 3.62470716-8.67340642-2.33016889-17.73517431-3.49525333-26.79694222-3.49525334-57.47749925 0-104.21033086 46.73283161-104.21033086 104.21033087 0 2.97743803 0.12945383 5.95487605 0.38836147 8.93231406 0.9061768 10.74466765-6.99050667 20.0653432-17.73517432 20.97152-0.64726914 0.25890765-1.16508445 0.25890765-1.68289975 0.25890766z" /><path d="M375.03785086 407.53076148m-19.41807406 0a19.41807408 19.41807408 0 1 0 38.83614814 0 19.41807408 19.41807408 0 1 0-38.83614814 0Z" /><path d="M528.44063605 390.05449482m-19.41807408 0a19.41807408 19.41807408 0 1 0 38.83614816 0 19.41807408 19.41807408 0 1 0-38.83614816 0Z" /><path d="M676.01799902 415.29799111m-19.41807408 0a19.41807408 19.41807408 0 1 0 38.83614815 0 19.41807408 19.41807408 0 1 0-38.83614815 0Z" /><path d="M429.40845827 312.38219852m-19.41807408 0a19.41807408 19.41807408 0 1 0 38.83614816 0 19.41807408 19.41807408 0 1 0-38.83614816 0Z" /></svg>