<?xml version="1.0" standalone="no"?><!DOCTYPE svg PUBLIC "-//W3C//DTD SVG 1.1//EN" "http://www.w3.org/Graphics/SVG/1.1/DTD/svg11.dtd"><svg t="1599315539952" class="icon" viewBox="0 0 1024 1024" version="1.1" xmlns="http://www.w3.org/2000/svg" p-id="2802" xmlns:xlink="http://www.w3.org/1999/xlink" width="200" height="200"><defs><style type="text/css"></style></defs><path d="M512 213.333333C296.533333 213.333333 157.866667 377.6 149.333333 640c0 10.666667 4.266667 21.333333 12.8 29.866667 6.4 8.533333 17.066667 12.8 27.733334 12.8H832c10.666667 0 21.333333-4.266667 29.866667-12.8 8.533333-8.533333 12.8-19.2 12.8-29.866667-6.4-256-153.6-426.666667-362.666667-426.666667zM192 642.133333C198.4 454.4 283.733333 256 512 256c187.733333 0 313.6 151.466667 322.133333 384L192 642.133333zM448 170.666667h128c12.8 0 21.333333-8.533333 21.333333-21.333334s-8.533333-21.333333-21.333333-21.333333h-128c-12.8 0-21.333333 8.533333-21.333333 21.333333s8.533333 21.333333 21.333333 21.333334zM832 725.333333H192c-12.8 0-21.333333 8.533333-21.333333 21.333334s8.533333 21.333333 21.333333 21.333333h640c12.8 0 21.333333-8.533333 21.333333-21.333333s-8.533333-21.333333-21.333333-21.333334zM725.333333 810.666667H298.666667c-12.8 0-21.333333 8.533333-21.333334 21.333333s8.533333 21.333333 21.333334 21.333333h426.666666c12.8 0 21.333333-8.533333 21.333334-21.333333s-8.533333-21.333333-21.333334-21.333333z" p-id="2803"></path></svg>